<?xml version="1.0" standalone="no"?>
<!DOCTYPE svg PUBLIC "-//W3C//DTD SVG 20010904//EN"
 "http://www.w3.org/TR/2001/REC-SVG-20010904/DTD/svg10.dtd">
<svg version="1.0" xmlns="http://www.w3.org/2000/svg"
 width="314.000000pt" height="107.000000pt" viewBox="0 0 314.000000 107.000000"
 preserveAspectRatio="xMidYMid meet">

<g transform="translate(0.000000,107.000000) scale(0.100000,-0.100000)"
fill="#000000" stroke="none">
<path d="M0 535 l0 -535 1570 0 1570 0 0 535 0 535 -1570 0 -1570 0 0 -535z
m297 138 l112 -118 120 119 c84 84 124 117 135 113 15 -6 16 -39 14 -314 -3
-300 -3 -308 -23 -308 -19 0 -20 8 -23 263 -1 144 -6 262 -11 262 -5 0 -45
-39 -89 -87 l-81 -88 35 -35 c19 -20 34 -40 34 -46 0 -19 -87 -104 -107 -104
-21 0 -103 78 -103 98 0 7 14 31 32 53 l32 40 -87 87 -87 87 0 -252 c0 -138
-3 -258 -6 -267 -9 -24 -41 -19 -48 7 -3 12 -6 148 -6 303 0 279 3 304 35 304
5 0 60 -53 122 -117z m530 -355 c-1 -90 -3 -19 -3 157 0 176 2 249 3 163 2
-86 2 -230 0 -320z m283 412 l32 -40 87 0 87 0 44 45 c48 49 58 53 66 30 4 -9
-24 -48 -75 -106 -45 -51 -81 -98 -81 -105 0 -34 35 -6 140 112 61 69 117 123
123 121 9 -3 12 -61 12 -203 0 -181 -2 -199 -17 -202 -16 -3 -18 6 -18 87 0
50 -4 91 -9 91 -5 0 -30 -23 -54 -51 -31 -35 -50 -50 -61 -46 -9 4 -16 11 -16
16 0 5 32 46 70 91 63 73 87 120 61 120 -6 0 -51 -46 -102 -102 -50 -57 -97
-106 -104 -111 -9 -5 -32 14 -71 58 -32 36 -61 65 -66 65 -4 0 -8 -49 -8 -110
0 -103 -1 -110 -20 -110 -19 0 -20 7 -20 143 0 131 -2 146 -20 162 -20 18 -20
17 -20 -139 0 -132 -2 -158 -15 -163 -9 -3 -18 -3 -21 0 -7 7 -5 387 2 398 8
14 39 -7 74 -51z m591 8 c46 -52 47 -53 67 -34 12 10 22 32 24 49 2 21 9 33
21 35 13 3 17 -4 17 -31 0 -22 7 -41 21 -53 21 -19 21 -19 70 34 32 34 55 52
64 48 24 -9 18 -24 -36 -81 l-50 -53 29 -34 c27 -30 32 -58 12 -58 -5 0 -22
12 -40 26 -30 25 -31 26 -50 9 -17 -16 -20 -31 -20 -122 0 -96 -1 -103 -20
-103 -19 0 -20 7 -20 103 0 91 -2 106 -20 122 -20 18 -21 18 -48 -8 -52 -50
-74 -20 -26 36 l25 30 -52 53 c-34 35 -50 58 -46 68 11 27 30 18 78 -36z m709
37 c35 -18 60 -52 60 -82 0 -33 -27 -29 -45 7 -16 31 -71 55 -115 48 -39 -5
-37 -28 3 -28 40 0 87 -33 87 -60 0 -30 -21 -35 -41 -9 -13 18 -30 25 -71 29
-49 5 -53 7 -58 35 -3 17 -10 29 -15 28 -6 -2 -11 -68 -13 -163 -2 -138 0
-160 13 -160 8 0 15 9 15 19 0 42 11 51 61 51 41 0 51 4 65 25 9 14 23 25 30
25 21 0 17 -47 -6 -70 -11 -11 -38 -23 -60 -26 -56 -9 -50 -24 9 -24 55 0 98
26 103 63 2 14 10 22 23 22 31 0 23 -52 -14 -88 -34 -35 -77 -44 -203 -42 -96
1 -125 14 -158 68 -16 26 -20 51 -20 135 0 182 30 212 208 212 81 0 121 -4
142 -15z m273 -155 c54 -94 102 -170 106 -170 7 0 95 142 107 173 4 13 1 17
-14 17 -13 0 -30 -16 -49 -45 -15 -25 -35 -45 -45 -45 -18 0 -138 193 -138
223 0 39 32 12 80 -68 28 -47 55 -85 60 -85 5 0 16 14 25 30 14 27 20 30 68
30 l52 0 30 52 c32 55 51 69 61 45 8 -22 -216 -397 -237 -397 -20 0 -242 377
-235 397 13 32 37 2 129 -157z m-1623 -410 c5 0 10 9 10 20 0 11 5 20 10 20 6
0 10 -20 10 -45 0 -25 -4 -45 -10 -45 -5 0 -10 7 -10 15 0 21 -19 19 -27 -2
-6 -15 -8 -14 -13 7 -3 14 -4 36 -1 49 4 25 4 25 12 3 5 -12 13 -22 19 -22z
m194 24 c30 -30 13 -74 -29 -74 -60 0 -59 88 2 90 6 0 19 -7 27 -16z m156 6
c0 -5 -9 -10 -20 -10 -26 0 -26 -16 1 -23 32 -9 20 -41 -16 -45 l-30 -2 24 14
24 14 -21 6 c-21 7 -30 35 -15 49 10 11 53 8 53 -3z m140 0 c0 -5 -4 -10 -10
-10 -5 0 -10 -16 -10 -35 0 -19 -4 -35 -10 -35 -5 0 -10 16 -10 35 0 19 -4 35
-10 35 -5 0 -10 5 -10 10 0 6 14 10 30 10 17 0 30 -4 30 -10z m230 0 c0 -5 -4
-10 -10 -10 -5 0 -10 -16 -10 -35 0 -19 -4 -35 -10 -35 -5 0 -10 16 -10 35 0
19 -4 35 -10 35 -5 0 -10 5 -10 10 0 6 14 10 30 10 17 0 30 -4 30 -10z m120
-30 c5 0 10 9 10 20 0 11 5 20 10 20 6 0 10 -20 10 -45 0 -25 -4 -45 -10 -45
-5 0 -10 7 -10 15 0 8 -7 15 -15 15 -8 0 -15 -7 -15 -15 0 -8 -4 -15 -10 -15
-11 0 -14 73 -3 84 4 4 11 -2 15 -14 4 -11 12 -20 18 -20z m170 30 c0 -5 -7
-10 -15 -10 -8 0 -15 -4 -15 -10 0 -5 7 -10 15 -10 21 0 19 -20 -2 -21 -17 -1
-17 -2 0 -6 26 -7 21 -23 -8 -23 -23 0 -25 4 -25 45 0 41 2 45 25 45 14 0 25
-4 25 -10z m214 4 c11 -4 16 -19 16 -45 0 -37 -2 -39 -30 -39 -29 0 -30 2 -30
45 0 46 8 53 44 39z m156 -4 c0 -5 -7 -10 -15 -10 -8 0 -15 -4 -15 -10 0 -5 7
-10 15 -10 21 0 19 -20 -2 -21 -17 -1 -17 -2 0 -6 26 -7 21 -23 -8 -23 -23 0
-25 4 -25 45 0 41 2 45 25 45 14 0 25 -4 25 -10z m145 0 c3 -5 -3 -10 -14 -10
-27 0 -27 -16 -1 -23 42 -11 15 -54 -27 -44 -15 3 -14 6 7 14 l25 10 -23 7
c-21 7 -30 35 -15 49 10 10 41 8 48 -3z m145 0 c0 -5 -4 -10 -10 -10 -5 0 -10
-16 -10 -35 0 -19 -4 -35 -10 -35 -5 0 -10 16 -10 35 0 19 -4 35 -10 35 -5 0
-10 5 -10 10 0 6 14 10 30 10 17 0 30 -4 30 -10z m90 -20 c0 -16 -4 -30 -10
-30 -11 0 -14 43 -3 53 11 12 13 8 13 -23z"/>
<path d="M391 456 c-22 -23 -22 -23 -2 -47 19 -23 19 -24 40 -5 26 23 26 38 3
59 -17 16 -20 15 -41 -7z"/>
<path d="M1190 642 c0 -5 9 -17 20 -27 19 -17 21 -17 40 0 29 27 25 35 -20 35
-22 0 -40 -4 -40 -8z"/>
<path d="M1793 665 c-9 -25 14 -42 32 -24 13 13 12 16 -5 27 -17 10 -21 10
-27 -3z"/>
<path d="M2122 710 c-7 -13 -12 -59 -12 -129 0 -94 3 -112 20 -132 l19 -24 1
153 c0 83 -3 152 -8 152 -4 0 -13 -9 -20 -20z"/>
<path d="M1207 223 c-15 -14 -7 -43 12 -43 24 0 33 13 25 34 -6 16 -25 21 -37
9z"/>
<path d="M2260 220 c0 -5 5 -10 10 -10 6 0 10 5 10 10 0 6 -4 10 -10 10 -5 0
-10 -4 -10 -10z"/>
</g>
</svg>
